<svg xmlns="http://www.w3.org/2000/svg" width="239" height="50" fill="none"><path fill="#0E3264" d="M192.281 12.706v11.438q0 .426.193.647t.689.358v.441h-5.524v-.44q.497-.138.689-.359.193-.22.193-.648V8.214q0-.413-.193-.634-.192-.22-.689-.358V6.78h6.392v.44q-.592.152-.592.635 0 .33.385.73l10.372 10.79V8.213q0-.413-.192-.634-.193-.22-.689-.358V6.78h5.524v.44q-.497.139-.689.36-.193.22-.193.633v15.93q0 .428.193.648.192.221.689.358v.441h-5.924v-.44q.579-.124.579-.593 0-.275-.675-.965zM173.837 6.447q4.918 0 7.797 2.66 3.044 2.783 3.044 7.193 0 2.7-1.46 5.044-2.852 4.575-9.353 4.575-4.877 0-7.755-2.66a9.3 9.3 0 0 1-2.342-3.404 9.8 9.8 0 0 1-.703-3.68q0-2.823 1.447-5.167 2.769-4.479 9.325-4.561m.014 3.183q-2.686 0-4.477 1.599-2.121 1.887-2.121 4.947t2.121 4.947q1.79 1.599 4.504 1.599t4.491-1.599a6.3 6.3 0 0 0 1.625-2.329 6.7 6.7 0 0 0 .496-2.535q0-3.198-2.121-5.03-1.804-1.571-4.518-1.599M154.539 9.879v14.263q0 .427.193.647.192.22.688.359v.44h-5.868v-.44q.497-.138.689-.359.193-.22.193-.647V9.879h-5.84q-.414 0-.634.193-.22.18-.358.675h-.441V5.882h.441q.151.51.358.703.22.193.634.193h15.772q.426 0 .647-.193.22-.192.358-.703h.441v4.865h-.441q-.138-.496-.358-.675-.22-.193-.647-.193zM124.703 12.706v11.438q0 .426.193.647t.689.358v.441h-5.524v-.44q.496-.138.689-.359t.193-.648V8.214q0-.413-.193-.634-.193-.22-.689-.358V6.78h6.392v.44q-.593.152-.593.635 0 .33.386.73l10.372 10.79V8.213q0-.413-.193-.634-.192-.22-.688-.358V6.78h5.523v.44q-.495.139-.688.36t-.193.633v15.93q0 .428.193.648.192.221.688.358v.441h-5.923v-.44q.579-.124.579-.593 0-.275-.675-.965zM103.614 17.334v5.154h12.094q.414 0 .634-.193t.358-.689h.441v4.865h-.441q-.138-.496-.358-.69-.22-.192-.634-.192h-17.08v-.441q.495-.138.689-.359.192-.22.192-.647V8.225q0-.427-.192-.648-.194-.22-.69-.358v-.44h16.751q.413 0 .633-.194.221-.207.358-.703h.441v4.865h-.441q-.137-.483-.358-.675t-.633-.193h-11.764v4.465h7.631q.414 0 .634-.193t.358-.69h.441v4.755h-.441q-.138-.483-.358-.675-.22-.207-.634-.207zM80.803 17.915v6.242q0 .414.193.648.207.22.689.345v.44h-5.868v-.44q.495-.138.689-.359.192-.22.192-.634V8.227q0-.427-.192-.648-.194-.22-.69-.358V6.78H87.58q2.15 0 3.403.248 1.268.248 2.204.868a4.37 4.37 0 0 1 1.625 1.943q.51 1.185.51 2.536 0 4.603-5.11 5.388l3.65 5.195q.963 1.365 1.405 1.764.454.387 1.102.427v.441h-6.805v-.44q.703-.111.703-.497 0-.248-.648-1.198l-3.802-5.54zm0-3.1h6.337q1.404 0 1.983-.084.58-.083 1.06-.344 1.048-.566 1.048-2.04t-1.047-2.04a2.9 2.9 0 0 0-1.06-.344q-.553-.082-1.984-.082h-6.337zM66.657 9.879v14.263q0 .427.193.647.192.22.688.359v.44H61.67v-.44q.496-.138.69-.359.192-.22.192-.647V9.879h-5.84q-.414 0-.634.193-.22.18-.358.675h-.441V5.882h.44q.153.51.359.703.22.193.633.193h15.773q.426 0 .647-.193.22-.192.358-.703h.44v4.865h-.44q-.138-.496-.358-.675-.22-.193-.647-.193z"/><path fill="#F0FCFC" fill-rule="evenodd" d="M24.99 0c13.8 0 24.988 11.193 24.988 25S38.79 50 24.99 50 0 38.807 0 25 11.188 0 24.99 0" clip-rule="evenodd"/><path fill="#28BCC0" fill-rule="evenodd" d="M24.891 0c11.041 0 20.402 7.221 23.66 17.217C45.283 9.064 37.07 3.28 27.454 3.28c-7.42 0-14.005 3.443-18.126 8.762-2.813 3.63-4.478 8.132-4.478 13.008 0 12.024 10.12 21.77 22.604 21.77 9.438 0 17.523-5.57 20.908-13.484C44.945 43.044 35.727 50 24.89 50 11.144 50 0 38.807 0 25S11.144 0 24.891 0" clip-rule="evenodd"/><path fill="#A4B0B0" fill-rule="evenodd" d="m24.44 12.857-3.02.237 9.422.21.017 3.839h.556l-.02-4.282z" clip-rule="evenodd"/><path fill="#0E3264" fill-rule="evenodd" d="m11.81 14.725-1.814-2.227 33.557-.355-22.597 1.76-.034 26.858-2.788 2.81-.025-29.403z" clip-rule="evenodd"/><path fill="#A4B0B0" fill-rule="evenodd" d="M31.145 19.048c.022-.152-.156-.187-.175-.042-.019.148.156.175.175.042m-.062-.989c-.08-.022-.147.053-.16.134-.016.105.043.188.11.203.173.04.233-.287.05-.337m.104-.196c.069.018.075.088.096.169l.112.438c.03.124.025.108-.007.23l-.111.438c-.022.084-.035.143-.117.145-.047.002-.199.007-.235-.004-.065-.018-.073-.096-.094-.172l-.111-.438c-.03-.115-.021-.116.007-.225l.112-.439c.021-.083.036-.143.114-.145.046-.002.2-.006.234.003M30.797 19.808c.11-.01.162.145.18.208.043.144.075.435.376.404a.43.43 0 0 0 .285-.137c.178-.226-.242-.462-.38-.685a.46.46 0 0 1-.05-.312h.282c.013.156.174.322.29.396.385.247.5.635.092.9a.95.95 0 0 1-.97 0 .4.4 0 0 1-.201-.344c-.001-.092.043-.377.096-.43" clip-rule="evenodd"/><path fill="#22BECB" fill-rule="evenodd" d="m24.952 20.714-3.7 1.044-.063 18.653-3.292 3.54-.048.335 7.14-6.966z" clip-rule="evenodd"/><path fill="#0E3264" fill-rule="evenodd" d="M42.125 33.571H29.307L22.847 40h19.176z" clip-rule="evenodd"/><path fill="#22C0CC" fill-rule="evenodd" d="M26.442 21.429h8.543v15h-8.568z" clip-rule="evenodd"/><path fill="#ACD7D0" fill-rule="evenodd" d="M24.275 28.571h2.856v5h-2.843z" clip-rule="evenodd"/><path fill="#22BECB" fill-rule="evenodd" d="m35.715 12.857 5.695 5.503V36.43H35.7z" clip-rule="evenodd"/><path fill="#ACD7D0" fill-rule="evenodd" d="m39.269 18.571 2.843 2.842.012 11.444h-2.84zM23.566 25h4.279v1.429h-4.284c.025 0 .005-1.429.005-1.429M33.557 22.857h4.284v.714h-4.263zM37.127 26.468v5.675H34.27v-5.714z" clip-rule="evenodd"/><path fill="#0E3264" d="M204.971 40.951q-1.36 0-2.414-.584a4.4 4.4 0 0 1-1.64-1.628q-.597-1.043-.597-2.39t.597-2.377a4.26 4.26 0 0 1 1.64-1.628q1.055-.598 2.414-.598.815 0 1.5.242.687.242 1.207.674.534.42.89.966l-1.423.89a2.3 2.3 0 0 0-.572-.61 2.8 2.8 0 0 0-.763-.42 2.4 2.4 0 0 0-.839-.152q-.838 0-1.486.394a2.7 2.7 0 0 0-1.017 1.055q-.369.674-.369 1.564 0 .877.356 1.564.369.686 1.03 1.08.66.382 1.525.382a2.6 2.6 0 0 0 1.194-.267q.534-.267.839-.75t.305-1.12l1.652-.253q0 1.258-.521 2.148a3.4 3.4 0 0 1-1.423 1.36q-.903.459-2.085.458m.293-3.56v-1.36H209v1.08l-.94.28zM191.012 40.8v-8.9h1.817l4.347 5.975V31.9h1.728v8.9h-1.728l-4.423-6.09v6.09zM187.339 40.8v-8.9h1.741v8.9zM181.798 40.8v-7.311h-2.669v-1.59h7.066v1.59h-2.656v7.31zM174.636 40.951q-1.297 0-2.301-.584a4.3 4.3 0 0 1-1.576-1.628q-.571-1.043-.571-2.39t.571-2.377a4.2 4.2 0 0 1 1.564-1.628q1.004-.598 2.3-.598.915 0 1.703.331.788.318 1.372.903.597.572.915 1.322l-1.614.598a2.7 2.7 0 0 0-.572-.814 2.5 2.5 0 0 0-.813-.547 2.4 2.4 0 0 0-.991-.203q-.776 0-1.385.394a2.64 2.64 0 0 0-.941 1.055q-.33.674-.33 1.564t.343 1.577q.343.674.953 1.067.61.382 1.398.382.546 0 .991-.204.458-.216.801-.584.356-.369.572-.852l1.614.585a4.2 4.2 0 0 1-.915 1.373q-.585.597-1.373.928-.788.33-1.715.33M168.123 40.8l-3.406-8.9h1.741l3.507 8.9zm-7.028 0 3.508-8.9h1.741l-3.406 8.9zm1.652-1.958v-1.539h5.579v1.539zM153.694 40.8v-8.9h3.304q.94 0 1.665.369.725.368 1.131 1.017.407.636.407 1.487 0 .84-.433 1.5a2.9 2.9 0 0 1-1.156 1.017q-.737.357-1.677.357h-1.5V40.8zm4.893 0-2.059-3.573 1.334-.954 2.694 4.526zm-3.152-4.743h1.576q.393 0 .699-.165.318-.165.495-.458.19-.292.191-.66 0-.573-.419-.929-.407-.356-1.055-.356h-1.487zM148.153 40.8v-7.311h-2.669v-1.59h7.066v1.59h-2.656v7.31zM136.443 40.8v-8.9h1.818l4.346 5.975V31.9h1.728v8.9h-1.728l-4.423-6.09v6.09zM130.507 40.95q-1.347 0-2.389-.584a4.3 4.3 0 0 1-1.614-1.628q-.585-1.042-.585-2.377 0-1.36.585-2.39a4.2 4.2 0 0 1 1.601-1.628q1.03-.585 2.364-.585 1.347 0 2.364.598a4.2 4.2 0 0 1 1.614 1.627q.584 1.03.584 2.378 0 1.335-.584 2.377a4.2 4.2 0 0 1-1.602 1.628q-1.016.585-2.338.585m0-1.589q.814 0 1.423-.381.624-.395.966-1.068.357-.674.356-1.551 0-.89-.356-1.564-.355-.674-.978-1.055-.623-.394-1.449-.394a2.67 2.67 0 0 0-2.415 1.449q-.355.674-.355 1.564 0 .878.355 1.55.357.675.992 1.069.635.381 1.461.381M121.159 40.951q-1.296 0-2.3-.584a4.27 4.27 0 0 1-1.576-1.628q-.573-1.043-.572-2.39 0-1.347.572-2.377a4.2 4.2 0 0 1 1.563-1.628q1.004-.598 2.3-.598.915 0 1.703.331.788.318 1.372.903.598.572.916 1.322l-1.614.598a2.7 2.7 0 0 0-.572-.814 2.5 2.5 0 0 0-.814-.547 2.4 2.4 0 0 0-.991-.203q-.775 0-1.385.394a2.65 2.65 0 0 0-.941 1.055q-.33.674-.33 1.564t.343 1.577q.344.674.953 1.067.61.382 1.398.382.547 0 .991-.204.457-.216.801-.584.356-.369.572-.852l1.614.585a4.2 4.2 0 0 1-.915 1.373q-.584.597-1.373.928-.788.33-1.715.33M107.378 40.8v-8.9h1.741v7.31h3.914v1.59zM104.469 40.8l-3.405-8.9h1.741l3.507 8.9zm-7.027 0 3.507-8.9h1.741l-3.406 8.9zm1.652-1.958v-1.539h5.579v1.539zM90.04 40.8v-8.9h3.305q.94 0 1.665.369.724.368 1.13 1.017.407.636.407 1.487 0 .84-.432 1.5-.42.65-1.156 1.017-.737.357-1.678.357h-1.5V40.8zm4.893 0-2.059-3.573 1.335-.954 2.694 4.526zm-3.151-4.743h1.575q.394 0 .7-.165.316-.165.495-.458.19-.292.19-.66 0-.573-.419-.929-.405-.356-1.054-.356h-1.487zM82.557 40.8v-8.9h5.63v1.589h-3.889v2.022h3.355v1.55h-3.355v2.15h3.94V40.8zM72.728 40.8v-8.9h1.817l4.346 5.975V31.9h1.729v8.9H78.89l-4.422-6.09v6.09zM65.244 40.8v-8.9h5.63v1.589h-3.889v2.022h3.355v1.55h-3.355v2.15h3.94V40.8zM59.93 40.951q-1.36 0-2.414-.584a4.4 4.4 0 0 1-1.64-1.628q-.597-1.043-.597-2.39t.597-2.377a4.26 4.26 0 0 1 1.64-1.628q1.055-.598 2.414-.598.813 0 1.5.242.686.242 1.207.674.534.42.89.966l-1.424.89a2.3 2.3 0 0 0-.572-.61 2.8 2.8 0 0 0-.762-.42 2.4 2.4 0 0 0-.839-.152q-.839 0-1.487.394a2.7 2.7 0 0 0-1.016 1.055q-.369.674-.369 1.564 0 .877.356 1.564.369.686 1.03 1.08.66.382 1.524.382.675 0 1.195-.267.533-.267.839-.75t.305-1.12l1.652-.253q0 1.258-.521 2.148a3.4 3.4 0 0 1-1.424 1.36q-.902.459-2.084.458m.292-3.56v-1.36h3.737v1.08l-.94.28z"/></svg>