<svg width="276" height="66" viewBox="0 0 276 66" fill="none" xmlns="http://www.w3.org/2000/svg">
<path d="M253.922 16.7714V31.8695C253.922 32.2454 254.007 32.5304 254.177 32.7244C254.346 32.9185 254.65 33.0761 255.086 33.1974V33.7795H247.792V33.1974C248.228 33.0761 248.531 32.9185 248.701 32.7244C248.871 32.5304 248.956 32.2454 248.956 31.8695V10.8414C248.956 10.4776 248.871 10.1986 248.701 10.0046C248.531 9.81058 248.228 9.65293 247.792 9.53166V8.94956H256.232V9.53166C255.711 9.66505 255.45 9.94397 255.45 10.3684C255.45 10.6595 255.62 10.9808 255.959 11.3325L269.657 25.5756V10.8414C269.657 10.4776 269.572 10.1986 269.402 10.0046C269.232 9.81058 268.929 9.65293 268.492 9.53166V8.94956H275.787V9.53166C275.35 9.65293 275.047 9.81058 274.877 10.0046C274.707 10.1986 274.623 10.4776 274.623 10.8414V31.8695C274.623 32.2454 274.707 32.5304 274.877 32.7244C275.047 32.9185 275.35 33.0761 275.787 33.1974V33.7795H267.965V33.1974C268.474 33.0882 268.729 32.8275 268.729 32.4152C268.729 32.1726 268.432 31.7482 267.838 31.1419L253.922 16.7714Z" fill="#0E3264"/>
<path d="M229.565 8.50977C233.894 8.50977 237.326 9.68002 239.861 12.0205C242.541 14.4702 243.881 17.6353 243.881 21.5159C243.881 23.8928 243.238 26.112 241.953 28.1736C239.442 32.1997 235.325 34.2128 229.601 34.2128C225.308 34.2128 221.895 33.0426 219.36 30.7021C218.002 29.453 216.971 27.9553 216.268 26.209C215.649 24.6689 215.34 23.05 215.34 21.3522C215.34 18.8662 215.977 16.5924 217.25 14.5308C219.687 10.5895 223.792 8.58253 229.565 8.50977ZM229.583 12.7118C227.218 12.7118 225.248 13.4151 223.671 14.8218C221.804 16.4832 220.87 18.66 220.87 21.3522C220.87 24.0444 221.804 26.2212 223.671 27.8826C225.248 29.2893 227.23 29.9926 229.619 29.9926C232.008 29.9926 233.985 29.2893 235.549 27.8826C236.483 27.0458 237.199 26.0211 237.696 24.8084C238.133 23.7291 238.351 22.6134 238.351 21.4613C238.351 18.6479 237.417 16.4347 235.549 14.8218C233.961 13.4394 231.972 12.736 229.583 12.7118Z" fill="#0E3264"/>
<path d="M204.08 13.04V31.8671C204.08 32.243 204.165 32.528 204.335 32.722C204.505 32.916 204.808 33.0737 205.244 33.195V33.7771H197.495V33.195C197.932 33.0737 198.235 32.916 198.405 32.722C198.574 32.528 198.659 32.243 198.659 31.8671V13.04H190.947C190.583 13.04 190.304 13.1249 190.11 13.2946C189.916 13.4523 189.758 13.7494 189.637 14.186H189.055V7.76476H189.637C189.77 8.21346 189.928 8.5227 190.11 8.69247C190.304 8.86225 190.583 8.94714 190.947 8.94714H211.775C212.151 8.94714 212.436 8.86225 212.63 8.69247C212.824 8.5227 212.981 8.21346 213.103 7.76476H213.685V14.186H213.103C212.981 13.7494 212.824 13.4523 212.63 13.2946C212.436 13.1249 212.151 13.04 211.775 13.04H204.08Z" fill="#0E3264"/>
<path d="M164.68 16.7714V31.8695C164.68 32.2454 164.765 32.5304 164.934 32.7244C165.104 32.9185 165.407 33.0761 165.844 33.1974V33.7795H158.55V33.1974C158.986 33.0761 159.289 32.9185 159.459 32.7244C159.629 32.5304 159.714 32.2454 159.714 31.8695V10.8414C159.714 10.4776 159.629 10.1986 159.459 10.0046C159.289 9.81058 158.986 9.65293 158.55 9.53166V8.94956H166.99V9.53166C166.469 9.66505 166.208 9.94397 166.208 10.3684C166.208 10.6595 166.378 10.9808 166.717 11.3325L180.415 25.5756V10.8414C180.415 10.4776 180.33 10.1986 180.16 10.0046C179.99 9.81058 179.687 9.65293 179.25 9.53166V8.94956H186.545V9.53166C186.108 9.65293 185.805 9.81058 185.635 10.0046C185.465 10.1986 185.38 10.4776 185.38 10.8414V31.8695C185.38 32.2454 185.465 32.5304 185.635 32.7244C185.805 32.9185 186.108 33.0761 186.545 33.1974V33.7795H178.723V33.1974C179.232 33.0882 179.487 32.8275 179.487 32.4152C179.487 32.1726 179.19 31.7482 178.595 31.1419L164.68 16.7714Z" fill="#0E3264"/>
<path d="M136.83 22.881V29.6842H152.801C153.165 29.6842 153.444 29.5993 153.638 29.4295C153.832 29.2598 153.99 28.9566 154.111 28.52H154.693V34.9412H154.111C153.99 34.5047 153.832 34.2015 153.638 34.0317C153.444 33.8619 153.165 33.777 152.801 33.777H130.245V33.195C130.682 33.0737 130.985 32.916 131.155 32.722C131.325 32.528 131.409 32.243 131.409 31.8671V10.8571C131.409 10.4812 131.325 10.1962 131.155 10.0022C130.985 9.80815 130.682 9.6505 130.245 9.52923V8.94714H152.365C152.729 8.94714 153.008 8.86225 153.202 8.69247C153.396 8.51057 153.553 8.20133 153.674 7.76476H154.257V14.186H153.674C153.553 13.7615 153.396 13.4644 153.202 13.2946C153.008 13.1249 152.729 13.04 152.365 13.04H136.83V18.9337H146.908C147.271 18.9337 147.55 18.8488 147.744 18.679C147.938 18.5092 148.096 18.2061 148.217 17.7695H148.799V24.0452H148.217C148.096 23.6207 147.938 23.3236 147.744 23.1538C147.55 22.9719 147.271 22.881 146.908 22.881H136.83Z" fill="#0E3264"/>
<path d="M106.707 23.6474V31.8877C106.707 32.2515 106.792 32.5365 106.961 32.7426C107.143 32.9366 107.446 33.0882 107.871 33.1974V33.7795H100.122V33.1974C100.558 33.0761 100.862 32.9185 101.031 32.7244C101.201 32.5304 101.286 32.2515 101.286 31.8877V10.8596C101.286 10.4836 101.201 10.1986 101.031 10.0046C100.862 9.81058 100.558 9.65293 100.122 9.53166V8.94956H115.656C117.548 8.94956 119.046 9.05871 120.149 9.27699C121.265 9.49528 122.235 9.87727 123.06 10.423C124.018 11.0536 124.733 11.9085 125.206 12.9878C125.655 14.0308 125.879 15.1464 125.879 16.3349C125.879 20.3853 123.63 22.7561 119.131 23.4473L123.951 30.3051C124.8 31.5057 125.419 32.2818 125.807 32.6335C126.207 32.973 126.692 33.161 127.262 33.1974V33.7795H118.276V33.1974C118.894 33.1004 119.204 32.8821 119.204 32.5425C119.204 32.3242 118.919 31.7967 118.349 30.96L113.328 23.6474H106.707ZM106.707 19.5546H115.074C116.311 19.5546 117.184 19.5182 117.694 19.4454C118.203 19.3727 118.67 19.2211 119.094 18.9907C120.016 18.4935 120.477 17.5961 120.477 16.2985C120.477 15.0009 120.016 14.1035 119.094 13.6063C118.658 13.3638 118.191 13.2122 117.694 13.1515C117.209 13.0788 116.336 13.0424 115.074 13.0424H106.707V19.5546Z" fill="#0E3264"/>
<path d="M88.0252 13.04V31.8671C88.0252 32.243 88.1101 32.528 88.2799 32.722C88.4497 32.916 88.7529 33.0737 89.1894 33.195V33.7771H81.4403V33.195C81.8769 33.0737 82.1801 32.916 82.3498 32.722C82.5196 32.528 82.6045 32.243 82.6045 31.8671V13.04H74.8918C74.528 13.04 74.249 13.1249 74.055 13.2946C73.861 13.4523 73.7033 13.7494 73.5821 14.186H73V7.76476H73.5821C73.7155 8.21346 73.8731 8.5227 74.055 8.69247C74.249 8.86225 74.528 8.94714 74.8918 8.94714H95.7198C96.0957 8.94714 96.3807 8.86225 96.5747 8.69247C96.7688 8.5227 96.9264 8.21346 97.0477 7.76476H97.6298V14.186H97.0477C96.9264 13.7494 96.7688 13.4523 96.5747 13.2946C96.3807 13.1249 96.0957 13.04 95.7198 13.04H88.0252Z" fill="#0E3264"/>
<path fill-rule="evenodd" clip-rule="evenodd" d="M33.0001 0C51.2254 0 66 14.7746 66 33C66 51.2254 51.2254 66 33.0001 66C14.7748 66 0 51.2254 0 33C0 14.7746 14.7748 0 33.0001 0Z" fill="#F0FCFC"/>
<path fill-rule="evenodd" clip-rule="evenodd" d="M32.8705 0C47.4511 0 59.8122 9.53181 64.1143 22.7266C59.8014 11.9649 48.9562 4.32951 36.2566 4.32951C26.4576 4.32951 17.7614 8.87494 12.3191 15.8953C8.60519 20.6859 6.40655 26.6291 6.40655 33.0664C6.40655 48.9374 19.7708 61.8034 36.2566 61.8034C48.7197 61.8034 59.3968 54.4495 63.8664 44.0038C59.3527 56.8184 47.1807 66 32.8705 66C14.7167 66 0 51.2254 0 33C0 14.7746 14.7167 0 32.8705 0Z" fill="#28BCC0"/>
<path fill-rule="evenodd" clip-rule="evenodd" d="M32.2742 16.9714L28.2857 17.2841L40.7286 17.5608L40.7516 22.6286H41.4857L41.4593 16.9772L32.2742 16.9714Z" fill="#A4B0B0"/>
<path fill-rule="evenodd" clip-rule="evenodd" d="M15.595 19.4369L13.2 16.4979L57.5143 16.0286L27.6734 18.3516L27.6285 53.8047L23.9474 57.5143L23.914 18.702L15.595 19.4369Z" fill="#0E3264"/>
<path fill-rule="evenodd" clip-rule="evenodd" d="M41.1292 25.1434C41.1582 24.9426 40.9229 24.897 40.8986 25.0873C40.8735 25.2837 41.1039 25.3192 41.1292 25.1434ZM41.0477 23.8379C40.9416 23.8092 40.8529 23.9084 40.8362 24.0153C40.815 24.1535 40.8924 24.2624 40.9806 24.2832C41.2099 24.3367 41.2893 23.9034 41.0477 23.8379ZM41.1843 23.5787C41.2756 23.6036 41.2843 23.6956 41.3117 23.8021L41.4592 24.3808C41.4993 24.5435 41.4919 24.5232 41.4508 24.6838C41.4009 24.8782 41.3518 25.0703 41.303 25.2623C41.2747 25.3735 41.2574 25.4504 41.1486 25.4539C41.0877 25.4557 40.8868 25.4624 40.8386 25.4487C40.7532 25.4247 40.7419 25.3221 40.715 25.2211L40.5676 24.6425C40.5274 24.4918 40.5402 24.4894 40.5775 24.346C40.6274 24.153 40.6747 23.9586 40.7247 23.7672C40.7535 23.6572 40.7723 23.5784 40.8763 23.5747C40.9359 23.5727 41.1393 23.5666 41.1843 23.5787Z" fill="#A4B0B0"/>
<path fill-rule="evenodd" clip-rule="evenodd" d="M40.6698 26.1459C40.8142 26.1332 40.883 26.3379 40.908 26.4217C40.9635 26.6112 41.0069 26.9949 41.4041 26.9547C41.5744 26.9374 41.7171 26.8548 41.7804 26.7739C42.0151 26.4751 41.4615 26.1637 41.2788 25.8694C41.2061 25.7522 41.1893 25.6025 41.212 25.4571L41.5846 25.4576C41.6022 25.6635 41.8142 25.8823 41.9675 25.9802C42.4768 26.3058 42.6294 26.8186 42.0893 27.1673C41.7229 27.4039 41.1788 27.3984 40.8089 27.1687C40.6612 27.0769 40.5458 26.9357 40.5428 26.714C40.5415 26.5932 40.5999 26.2167 40.6698 26.1459Z" fill="#A4B0B0"/>
<path fill-rule="evenodd" clip-rule="evenodd" d="M32.9508 27.3429L28.0637 28.7208L27.9813 53.3432L23.6337 58.0165L23.5714 58.4571L33 49.2627L32.9508 27.3429Z" fill="#22BECB"/>
<path fill-rule="evenodd" clip-rule="evenodd" d="M55.6286 44.3143H38.7019L30.1714 52.8H55.494L55.6286 44.3143Z" fill="#0E3264"/>
<path fill-rule="evenodd" clip-rule="evenodd" d="M34.918 28.2857H46.2V48.0857H34.8857L34.918 28.2857Z" fill="#22C0CC"/>
<path fill-rule="evenodd" clip-rule="evenodd" d="M32.0571 37.7143H35.8285V44.3143H32.0734L32.0571 37.7143Z" fill="#ACD7D0"/>
<path fill-rule="evenodd" clip-rule="evenodd" d="M47.1641 16.9714L54.6857 24.2359V48.0857H47.1428L47.1641 16.9714Z" fill="#22BECB"/>
<path fill-rule="evenodd" clip-rule="evenodd" d="M51.8571 24.5143L55.6118 28.2652L55.6285 43.3714H51.8783L51.8571 24.5143Z" fill="#ACD7D0"/>
<path fill-rule="evenodd" clip-rule="evenodd" d="M31.12 33H36.7714V34.8857C36.7714 34.8857 31.0817 34.8857 31.1143 34.8857C31.1471 34.8857 31.12 33 31.12 33Z" fill="#ACD7D0"/>
<path fill-rule="evenodd" clip-rule="evenodd" d="M44.3143 30.1714H49.9714V31.1143H44.3425L44.3143 30.1714Z" fill="#ACD7D0"/>
<path fill-rule="evenodd" clip-rule="evenodd" d="M49.0286 34.9378V42.4286H45.2572V34.8857L49.0286 34.9378Z" fill="#ACD7D0"/>
<path d="M270.68 54.0558C269.483 54.0558 268.42 53.7985 267.491 53.2838C266.574 52.758 265.852 52.0419 265.326 51.1357C264.801 50.2182 264.538 49.1666 264.538 47.9806C264.538 46.7947 264.801 45.7486 265.326 44.8423C265.852 43.9249 266.574 43.2088 267.491 42.6942C268.42 42.1683 269.483 41.9054 270.68 41.9054C271.396 41.9054 272.056 42.0117 272.66 42.2243C273.264 42.4369 273.796 42.7333 274.255 43.1137C274.725 43.483 275.116 43.9081 275.429 44.3892L273.55 45.564C273.36 45.2619 273.108 44.9934 272.795 44.7584C272.493 44.5235 272.157 44.3388 271.788 44.2046C271.418 44.0703 271.049 44.0032 270.68 44.0032C269.942 44.0032 269.287 44.1766 268.716 44.5235C268.146 44.8591 267.698 45.3234 267.374 45.9164C267.049 46.5094 266.887 47.1974 266.887 47.9806C266.887 48.7526 267.044 49.4407 267.357 50.0448C267.682 50.649 268.135 51.1245 268.716 51.4713C269.298 51.807 269.97 51.9748 270.73 51.9748C271.323 51.9748 271.849 51.8573 272.308 51.6224C272.778 51.3874 273.147 51.0574 273.416 50.6322C273.684 50.2071 273.818 49.7148 273.818 49.1554L276 48.8197C276 49.9274 275.771 50.8728 275.312 51.6559C274.864 52.4391 274.238 53.0377 273.432 53.4516C272.638 53.8544 271.721 54.0558 270.68 54.0558ZM271.066 49.3568V47.5611H276V48.9875L274.758 49.3568H271.066Z" fill="#0E3264"/>
<path d="M252.246 53.8554V42.1078H254.646L260.385 49.9954V42.1078H262.667V53.8554H260.385L254.545 45.8166V53.8554H252.246Z" fill="#0E3264"/>
<path d="M247.395 53.8554V42.1078H249.694V53.8554H247.395Z" fill="#0E3264"/>
<path d="M240.078 53.8554V44.2055H236.553V42.1078H245.884V44.2055H242.377V53.8554H240.078Z" fill="#0E3264"/>
<path d="M230.619 54.0558C229.478 54.0558 228.465 53.7985 227.582 53.2838C226.698 52.758 226.004 52.0419 225.501 51.1357C224.997 50.2182 224.745 49.1666 224.745 47.9806C224.745 46.7947 224.997 45.7486 225.501 44.8423C226.004 43.9249 226.692 43.2088 227.565 42.6942C228.449 42.1683 229.461 41.9054 230.602 41.9054C231.408 41.9054 232.158 42.0509 232.851 42.3418C233.545 42.6215 234.149 43.0186 234.664 43.5333C235.19 44.0368 235.592 44.6186 235.872 45.2787L233.741 46.0674C233.55 45.6535 233.299 45.2954 232.985 44.9934C232.672 44.6801 232.314 44.4395 231.911 44.2717C231.509 44.0927 231.072 44.0032 230.602 44.0032C229.92 44.0032 229.31 44.1766 228.773 44.5235C228.247 44.8591 227.833 45.3234 227.531 45.9164C227.24 46.5094 227.095 47.1974 227.095 47.9806C227.095 48.7638 227.246 49.4574 227.548 50.0616C227.85 50.6546 228.27 51.1245 228.807 51.4713C229.344 51.807 229.959 51.9748 230.653 51.9748C231.134 51.9748 231.57 51.8853 231.962 51.7063C232.365 51.5161 232.717 51.2587 233.019 50.9343C233.332 50.6098 233.584 50.235 233.774 49.8099L235.906 50.5819C235.626 51.2643 235.223 51.8685 234.697 52.3943C234.183 52.9202 233.578 53.3286 232.885 53.6195C232.191 53.9104 231.436 54.0558 230.619 54.0558Z" fill="#0E3264"/>
<path d="M222.019 53.8554L217.521 42.1078H219.82L224.452 53.8554H222.019ZM212.738 53.8554L217.37 42.1078H219.669L215.171 53.8554H212.738ZM214.92 51.2709V49.2402H222.287V51.2709H214.92Z" fill="#0E3264"/>
<path d="M202.964 53.8554V42.1078H207.328C208.156 42.1078 208.888 42.27 209.526 42.5944C210.164 42.9189 210.662 43.3664 211.02 43.937C211.378 44.4964 211.557 45.1509 211.557 45.9006C211.557 46.639 211.367 47.2991 210.986 47.8809C210.617 48.4515 210.108 48.899 209.459 49.2234C208.81 49.5367 208.072 49.6934 207.244 49.6934H205.263V53.8554H202.964ZM209.425 53.8554L206.707 49.1395L208.469 47.8809L212.027 53.8554H209.425ZM205.263 47.5956H207.344C207.691 47.5956 207.999 47.5228 208.267 47.3774C208.547 47.2319 208.765 47.0306 208.922 46.7732C209.09 46.5159 209.174 46.225 209.174 45.9006C209.174 45.3971 208.989 44.9887 208.62 44.6754C208.262 44.3622 207.797 44.2055 207.227 44.2055H205.263V47.5956Z" fill="#0E3264"/>
<path d="M195.647 53.8554V44.2055H192.123V42.1078H201.454V44.2055H197.947V53.8554H195.647Z" fill="#0E3264"/>
<path d="M180.184 53.8554V42.1078H182.583L188.323 49.9954V42.1078H190.605V53.8554H188.323L182.483 45.8166V53.8554H180.184Z" fill="#0E3264"/>
<path d="M172.344 54.0547C171.158 54.0547 170.107 53.7974 169.189 53.2827C168.283 52.7569 167.573 52.0409 167.058 51.1346C166.543 50.2172 166.286 49.1711 166.286 47.9963C166.286 46.7992 166.543 45.7475 167.058 44.8413C167.573 43.9238 168.277 43.2078 169.173 42.6931C170.079 42.1785 171.119 41.9211 172.294 41.9211C173.48 41.9211 174.52 42.1841 175.416 42.7099C176.322 43.2246 177.032 43.9406 177.547 44.858C178.062 45.7643 178.319 46.8104 178.319 47.9963C178.319 49.1711 178.062 50.2172 177.547 51.1346C177.043 52.0409 176.339 52.7569 175.432 53.2827C174.537 53.7974 173.508 54.0547 172.344 54.0547ZM172.344 51.9569C173.06 51.9569 173.687 51.7891 174.224 51.4535C174.772 51.1066 175.197 50.6367 175.499 50.0438C175.813 49.4508 175.969 48.7683 175.969 47.9963C175.969 47.2131 175.813 46.5251 175.499 45.9321C175.186 45.3391 174.755 44.8748 174.207 44.5392C173.659 44.1923 173.021 44.0189 172.294 44.0189C171.589 44.0189 170.957 44.1923 170.398 44.5392C169.849 44.8748 169.419 45.3391 169.105 45.9321C168.792 46.5251 168.635 47.2131 168.635 47.9963C168.635 48.7683 168.792 49.4508 169.105 50.0438C169.419 50.6367 169.855 51.1066 170.414 51.4535C170.974 51.7891 171.617 51.9569 172.344 51.9569Z" fill="#0E3264"/>
<path d="M159.999 54.0558C158.858 54.0558 157.845 53.7985 156.962 53.2838C156.078 52.758 155.384 52.0419 154.881 51.1357C154.377 50.2182 154.125 49.1666 154.125 47.9806C154.125 46.7947 154.377 45.7486 154.881 44.8423C155.384 43.9249 156.072 43.2088 156.945 42.6942C157.829 42.1683 158.841 41.9054 159.982 41.9054C160.788 41.9054 161.538 42.0509 162.231 42.3418C162.925 42.6215 163.529 43.0186 164.044 43.5333C164.57 44.0368 164.972 44.6186 165.252 45.2787L163.121 46.0674C162.93 45.6535 162.679 45.2954 162.365 44.9934C162.052 44.6801 161.694 44.4395 161.291 44.2717C160.889 44.0927 160.452 44.0032 159.982 44.0032C159.3 44.0032 158.69 44.1766 158.153 44.5235C157.627 44.8591 157.213 45.3234 156.911 45.9164C156.62 46.5094 156.475 47.1974 156.475 47.9806C156.475 48.7638 156.626 49.4574 156.928 50.0616C157.23 50.6546 157.65 51.1245 158.187 51.4713C158.724 51.807 159.339 51.9748 160.033 51.9748C160.514 51.9748 160.95 51.8853 161.342 51.7063C161.745 51.5161 162.097 51.2587 162.399 50.9343C162.712 50.6098 162.964 50.235 163.154 49.8099L165.286 50.5819C165.006 51.2643 164.603 51.8685 164.077 52.3943C163.563 52.9202 162.958 53.3286 162.265 53.6195C161.571 53.9104 160.816 54.0558 159.999 54.0558Z" fill="#0E3264"/>
<path d="M141.801 53.8554V42.1078H144.1V51.7576H149.269V53.8554H141.801Z" fill="#0E3264"/>
<path d="M137.96 53.8554L133.462 42.1078H135.761L140.393 53.8554H137.96ZM128.679 53.8554L133.311 42.1078H135.61L131.112 53.8554H128.679ZM130.861 51.2709V49.2402H138.228V51.2709H130.861Z" fill="#0E3264"/>
<path d="M118.905 53.8554V42.1078H123.269C124.097 42.1078 124.829 42.27 125.467 42.5944C126.105 42.9189 126.603 43.3664 126.961 43.937C127.319 44.4964 127.498 45.1509 127.498 45.9006C127.498 46.639 127.308 47.2991 126.927 47.8809C126.558 48.4515 126.049 48.899 125.4 49.2234C124.751 49.5367 124.013 49.6934 123.185 49.6934H121.204V53.8554H118.905ZM125.366 53.8554L122.648 49.1395L124.41 47.8809L127.968 53.8554H125.366ZM121.204 47.5956H123.285C123.632 47.5956 123.94 47.5228 124.208 47.3774C124.488 47.2319 124.706 47.0306 124.863 46.7732C125.031 46.5159 125.115 46.225 125.115 45.9006C125.115 45.3971 124.93 44.9887 124.561 44.6754C124.203 44.3622 123.739 44.2055 123.168 44.2055H121.204V47.5956Z" fill="#0E3264"/>
<path d="M109.023 53.8554V42.1078H116.457V44.2055H111.322V46.8739H115.752V48.9214H111.322V51.7576H116.524V53.8554H109.023Z" fill="#0E3264"/>
<path d="M96.0427 53.8554V42.1078H98.4426L104.182 49.9954V42.1078H106.465V53.8554H104.182L98.3419 45.8166V53.8554H96.0427Z" fill="#0E3264"/>
<path d="M86.16 53.8554V42.1078H93.5946V44.2055H88.4592V46.8739H92.8897V48.9214H88.4592V51.7576H93.6617V53.8554H86.16Z" fill="#0E3264"/>
<path d="M79.1423 54.0558C77.9452 54.0558 76.8823 53.7985 75.9537 53.2838C75.0362 52.758 74.3146 52.0419 73.7888 51.1357C73.2629 50.2182 73 49.1666 73 47.9806C73 46.7947 73.2629 45.7486 73.7888 44.8423C74.3146 43.9249 75.0362 43.2088 75.9537 42.6942C76.8823 42.1683 77.9452 41.9054 79.1423 41.9054C79.8584 41.9054 80.5185 42.0117 81.1226 42.2243C81.7268 42.4369 82.2582 42.7333 82.7169 43.1137C83.1869 43.483 83.5784 43.9081 83.8917 44.3892L82.0121 45.564C81.8219 45.2619 81.5702 44.9934 81.2569 44.7584C80.9548 44.5235 80.6192 44.3388 80.2499 44.2046C79.8807 44.0703 79.5115 44.0032 79.1423 44.0032C78.4039 44.0032 77.7494 44.1766 77.1788 44.5235C76.6082 44.8591 76.1607 45.3234 75.8362 45.9164C75.5117 46.5094 75.3495 47.1974 75.3495 47.9806C75.3495 48.7526 75.5062 49.4407 75.8194 50.0448C76.1439 50.649 76.597 51.1245 77.1788 51.4713C77.7606 51.807 78.4319 51.9748 79.1927 51.9748C79.7856 51.9748 80.3115 51.8573 80.7702 51.6224C81.2401 51.3874 81.6093 51.0574 81.8778 50.6322C82.1463 50.2071 82.2806 49.7148 82.2806 49.1554L84.4623 48.8197C84.4623 49.9274 84.2329 50.8728 83.7742 51.6559C83.3267 52.4391 82.7002 53.0377 81.8946 53.4516C81.1003 53.8544 80.1828 54.0558 79.1423 54.0558ZM79.5283 49.3568V47.5611H84.4623V48.9875L83.2204 49.3568H79.5283Z" fill="#0E3264"/>
</svg>
